<svg xmlns="http://www.w3.org/2000/svg" width="13" height="7" viewBox="0 0 13 7">
    <g fill="none" fill-rule="evenodd">
        <g fill="#6E91F0">
            <g>
                <g>
                    <path d="M341.792 25.2c-.276-.267-.724-.267-1 0l-5.292 5.137-5.292-5.136c-.275-.268-.723-.268-1 0-.134.13-.208.304-.208.489 0 .184.074.358.208.488l5.792 5.62c.134.13.312.202.5.202.191 0 .369-.073.5-.201l5.792-5.62c.135-.131.208-.305.208-.49 0-.184-.073-.358-.208-.488" transform="translate(-329 -187) translate(0 95) translate(0 67) matrix(1 0 0 -1 0 57)"/>
                </g>
            </g>
        </g>
    </g>
</svg>
