<svg xmlns="http://www.w3.org/2000/svg" width="20" height="20" viewBox="0 0 20 20">
    <g fill="none" fill-rule="evenodd">
        <g>
            <g transform="translate(-322 -105) translate(322 105)">
                <circle cx="10" cy="10" r="10" fill="#6E91F0" opacity=".404"/>
                <path fill="#FFF" stroke="#FFF" stroke-width=".3" d="M8.143 5.644c-.19.19-.19.501 0 .692L11.812 10l-3.669 3.664c-.19.19-.19.5 0 .692.094.093.218.144.35.144.131 0 .255-.051.349-.144l4.014-4.01c.093-.093.144-.216.144-.347 0-.131-.052-.254-.144-.345l-4.014-4.01c-.094-.093-.218-.144-.35-.144-.131 0-.255.05-.349.144"/>
            </g>
        </g>
    </g>
</svg>
