<svg xmlns="http://www.w3.org/2000/svg" width="44" height="69" viewBox="0 0 44 69">
    <g fill="none" fill-opacity=".08" fill-rule="evenodd">
        <g fill="#6E91F0" stroke="#6E91F0">
            <g>
                <g>
                    <path d="M38 .5c1.519 0 2.894.616 3.89 1.61.994.996 1.61 2.371 1.61 3.89h0v49.738c0 1.106-.331 2.158-.917 3.04-.586.884-1.426 1.598-2.445 2.027h0l-17.555 7.406c-.373.158-.793.158-1.166 0h0L3.862 60.805c-1.019-.43-1.86-1.143-2.445-2.026C.831 57.896.5 56.844.5 55.738h0V6c0-1.519.616-2.894 1.61-3.89C3.107 1.117 4.482.5 6 .5h0z" transform="translate(-20 -144) translate(-15 144) translate(35)"/>
                </g>
            </g>
        </g>
    </g>
</svg>
