<svg xmlns="http://www.w3.org/2000/svg" xmlns:xlink="http://www.w3.org/1999/xlink" width="18" height="16" viewBox="0 0 18 16">
    <defs>
        <filter id="9vlzej6x2a">
            <feColorMatrix in="SourceGraphic" values="0 0 0 0 0.544458 0 0 0 0 0.544458 0 0 0 0 0.567086 0 0 0 1.000000 0"/>
        </filter>
        <path id="dhq1yv08yb" d="M0 0L18 0 18 16 0 16z"/>
    </defs>
    <g fill="none" fill-rule="evenodd">
        <g>
            <g>
                <g filter="url(#9vlzej6x2a)" transform="translate(-171 -178) translate(20 95) translate(45 83)">
                    <g transform="translate(106)">
                        <mask id="g0lbpau4ac" fill="#8b8b91">
                            <use xlink:href="#dhq1yv08yb"/>
                        </mask>
                        <path fill="#9292A5" d="M9 12.453c-1.69 0-3.061-1.354-3.061-3.023 0-1.67 1.37-3.024 3.06-3.024 1.692 0 3.063 1.354 3.063 3.024 0 1.669-1.371 3.023-3.062 3.023M17.357 3.2h-4.05L12.216.385C12.15.128 11.894 0 11.635 0h-5.35c-.258 0-.515.192-.58.385L4.55 3.2H.643C.257 3.2 0 3.456 0 3.84v11.52c0 .385.257.64.643.64h16.714c.386 0 .643-.255.643-.64V3.84c0-.32-.257-.64-.643-.64" mask="url(#g0lbpau4ac)"/>
                    </g>
                </g>
            </g>
        </g>
    </g>
</svg>
